<svg xmlns="http://www.w3.org/2000/svg" viewBox="0 0 128 128" fill="none"><defs><linearGradient id="g" x1="24" y1="18" x2="110" y2="110" gradientUnits="userSpaceOnUse"><stop stop-color="#60A5FA"/><stop offset=".44" stop-color="#7C3AED"/><stop offset=".78" stop-color="#A855F7"/><stop offset="1" stop-color="#FB923C"/></linearGradient><filter id="s" x="-25%" y="-25%" width="150%" height="150%"><feDropShadow dx="0" dy="8" stdDeviation="7" flood-color="#6D28D9" flood-opacity=".22"/></filter></defs><g filter="url(#s)"><path d="M38 87h53c13 0 23-9 23-21 0-11-9-20-20-21C90 31 78 22 64 22 47 22 34 34 32 50 20 52 13 60 13 70c0 10 9 17 25 17Z" fill="#F7F5FF" stroke="url(#g)" stroke-width="7" stroke-linejoin="round"/><path d="M41 94c9 8 19 12 30 12 15 0 28-7 36-18" stroke="url(#g)" stroke-width="6" stroke-linecap="round"/><circle cx="38" cy="94" r="6" fill="#60A5FA"/><circle cx="108" cy="87" r="6" fill="#FB923C"/><path d="M88 28c9 2 16 7 22 14" stroke="url(#g)" stroke-width="6" stroke-linecap="round"/><circle cx="84" cy="27" r="6" fill="#8B5CF6"/></g></svg>